<svg xmlns="http://www.w3.org/2000/svg">
    <defs>
        <symbol id="site" viewBox="0 0 16 16" fill="none">
            <mask id="mask0_2_89" style="mask-type:luminance" maskUnits="userSpaceOnUse" x="0" y="0" width="16" height="16">
                <path d="M0 -7.62939e-05H16V15.9999H0V-7.62939e-05Z" fill="white"/>
            </mask>
            <g mask="url(#mask0_2_89)">
                <path d="M14.0784 6.29319C14.0784 9.76888 11.2608 12.5865 7.7851 12.5865C4.30942 12.5865 1.49182 9.76888 1.49182 6.29319C1.49182 2.8175 4.30942 -9.05991e-05 7.7851 -9.05991e-05C11.2608 -9.05991e-05 14.0784 2.8175 14.0784 6.29319Z" fill="#CBE1FF"/>
                <path d="M12.1294 4.55345C12.2248 4.49058 12.2248 4.35098 12.1294 4.28814C11.8787 4.12295 11.6452 3.93319 11.4322 3.72167C11.2193 3.51063 11.0281 3.27885 10.8614 3.02977C10.798 2.93508 10.6574 2.93508 10.594 3.02977C10.4273 3.27885 10.2361 3.51063 10.0232 3.72167C9.81019 3.93319 9.57663 4.12295 9.32598 4.28814C9.23057 4.35098 9.23057 4.49058 9.32598 4.55345C9.57664 4.71863 9.8102 4.90839 10.0232 5.11992C10.2361 5.33095 10.4273 5.56274 10.594 5.81183C10.6574 5.90651 10.798 5.90651 10.8614 5.81183C11.0281 5.56274 11.2193 5.33095 11.4322 5.11992C11.6452 4.9084 11.8787 4.71863 12.1294 4.55345Z" fill="#A9CFFC"/>
                <path d="M14.0786 6.29341C14.0786 9.76875 11.2609 12.5864 7.78511 12.5864C4.30926 12.5864 1.49161 9.76875 1.49161 6.29341C1.49161 6.07013 1.50326 5.84979 1.52608 5.63232C1.75323 8.28494 3.97823 10.3677 6.69008 10.3677C9.55336 10.3677 11.874 8.04663 11.874 5.18382C11.874 2.49675 9.82954 0.286786 7.21042 0.0256615C7.3997 0.00866127 7.59145 -8.86917e-05 7.78511 -8.86917e-05C11.2609 -8.86917e-05 14.0786 2.81757 14.0786 6.29341Z" fill="#A9CFFC"/>
                <path d="M13.7885 4.39899C13.6872 4.50793 13.5947 4.62477 13.5119 4.74839C13.4723 4.80805 13.3832 4.80805 13.3435 4.74839C13.2382 4.59128 13.1175 4.44504 12.9832 4.31183C12.8463 4.17558 12.6988 4.05652 12.5432 3.95433C12.4832 3.91461 12.4832 3.82652 12.5432 3.7868C12.7014 3.6826 12.8488 3.56285 12.9832 3.42933C13.0748 3.33839 13.1585 3.24308 13.2348 3.14368C13.4648 3.54054 13.6505 3.96151 13.7885 4.39899Z" fill="#7CBAF7"/>
                <path d="M13.8377 6.5074C13.9047 6.46328 13.9047 6.36531 13.8377 6.32119C13.6618 6.20523 13.4978 6.07203 13.3483 5.92356C13.1989 5.77544 13.0647 5.61275 12.9477 5.4379C12.9032 5.37144 12.8045 5.37144 12.76 5.4379C12.643 5.61275 12.5088 5.77544 12.3593 5.92356C12.2098 6.07202 12.0459 6.20522 11.87 6.32119C11.803 6.36531 11.803 6.46328 11.87 6.5074C12.0459 6.62337 12.2098 6.75657 12.3593 6.90503C12.5088 7.05315 12.643 7.21584 12.76 7.39068C12.8045 7.45715 12.9032 7.45715 12.9477 7.39068C13.0647 7.21584 13.1989 7.05315 13.3483 6.90503C13.4978 6.75656 13.6618 6.62336 13.8377 6.5074Z" fill="#7CBAF7"/>
                <path d="M14.0785 6.29336C14.0785 9.76864 11.261 12.5865 7.78508 12.5865C6.05508 12.5865 4.48883 11.8886 3.35101 10.7593C4.33414 11.3249 5.47445 11.6483 6.69039 11.6483C10.3932 11.6483 13.3951 8.64646 13.3951 4.94368C13.3951 4.22146 13.2807 3.52555 13.0691 2.87364C13.7079 3.85833 14.0785 5.03239 14.0785 6.29336Z" fill="#7CBAF7"/>
                <path d="M11.7553 15.6141L11.0953 12.8791H4.49L3.82997 15.6141C3.78253 15.8107 3.9315 15.9999 4.13375 15.9999H11.4515C11.6538 15.9999 11.8028 15.8107 11.7553 15.6141Z" fill="#8F6BDD"/>
                <path d="M11.7554 15.614L11.0954 12.8793H10.0659C10.0659 14.499 9.59291 15.5032 8.85785 15.8052V15.9999H11.4517C11.6538 15.9999 11.8026 15.8108 11.7554 15.614Z" fill="#8042E0"/>
                <path d="M11.363 13.9886L11.0953 12.8792H4.48998L4.22226 13.9886H11.363Z" fill="#8042E0"/>
                <path d="M11.3438 13.3672H4.22627C3.94759 13.3672 3.72168 13.1413 3.72168 12.8626V12.153C3.72168 11.8743 3.94759 11.6483 4.22627 11.6483H11.3438C11.6225 11.6483 11.8484 11.8743 11.8484 12.153V12.8626C11.8484 13.1413 11.6225 13.3672 11.3438 13.3672Z" fill="#FFC751"/>
                <path d="M11.8485 12.153V12.8625C11.8485 13.1415 11.6224 13.3671 11.3439 13.3671H9.45926C10.2863 13.1133 10.9423 12.4684 11.2117 11.6485H11.3439C11.6224 11.6485 11.8485 11.8745 11.8485 12.153Z" fill="#FFAF40"/>
                <path d="M8.52908 11.6483H5.31929C4.90604 11.6483 4.57108 11.9833 4.57108 12.3965V12.3965C4.57108 12.8098 4.90604 13.1448 5.31929 13.1448H8.52908C8.94229 13.1448 9.27726 12.8098 9.27726 12.3965V12.3965C9.27726 11.9833 8.94229 11.6483 8.52908 11.6483Z" fill="#FFE059"/>
                <path d="M7.06969 11.6483H6.32491C5.91166 11.6483 5.57669 11.9833 5.57669 12.3965V12.3965C5.57669 12.8098 5.91166 13.1448 6.32491 13.1448H7.06969C7.48291 13.1448 7.81788 12.8098 7.81788 12.3965V12.3965C7.81788 11.9833 7.48291 11.6483 7.06969 11.6483Z" fill="#FFF370"/>
                <path d="M2.50818 5.23967H2.51515C2.82931 5.23967 3.10375 5.03608 3.20496 4.7387C3.75446 3.12411 5.13475 1.89023 6.83415 1.55001C7.17412 1.48195 7.41859 1.18323 7.41859 0.836545V0.836514C7.41859 0.376607 6.99759 0.0321388 6.54659 0.12217C4.32906 0.564733 2.53225 2.17261 1.82115 4.28039C1.66225 4.75136 2.01112 5.23967 2.50818 5.23967Z" fill="#E3F0FF"/>
                <path d="M3.76686 1.45115C3.44284 1.72035 3.14649 2.02122 2.88223 2.34928C2.62945 2.66312 2.68142 3.12287 2.99873 3.37124L3.01039 3.3804C3.32342 3.62553 3.77198 3.56909 4.02173 3.25978C4.22637 3.0064 4.45586 2.77414 4.70676 2.56646C5.01367 2.31243 5.04929 1.85293 4.79083 1.54968L4.78126 1.53849C4.52373 1.23612 4.07236 1.19737 3.76686 1.45115Z" fill="#F5FAFF"/>
                <path d="M11.4517 15.9999H9.47043C10.3532 15.7405 11.0711 15.0949 11.4282 14.258L11.7554 15.614C11.8026 15.8108 11.6539 15.9999 11.4517 15.9999Z" fill="#772DBD"/>
                <path d="M13.8665 5.9571C13.9335 5.913 13.9335 5.815 13.8665 5.77088C13.6906 5.65491 13.5266 5.52171 13.3771 5.37325C13.2277 5.22513 13.0935 5.06244 12.9765 4.8876C12.932 4.82113 12.8333 4.82113 12.7888 4.8876C12.6718 5.06244 12.5375 5.22513 12.3881 5.37325C12.2386 5.52172 12.0747 5.65492 11.8988 5.77088C11.8318 5.815 11.8318 5.913 11.8988 5.9571C12.0747 6.07305 12.2386 6.20627 12.3881 6.35475C12.5375 6.50285 12.6718 6.66554 12.7888 6.84038C12.8333 6.90685 12.932 6.90685 12.9765 6.84038C13.0935 6.66554 13.2277 6.50285 13.3771 6.35475C13.5266 6.20627 13.6906 6.07306 13.8665 5.9571Z" fill="#8F6BDD"/>
                <path d="M13.8665 5.95707C13.6906 6.07304 13.5266 6.20625 13.3771 6.35473C13.2277 6.50284 13.0935 6.66553 12.9764 6.84039C12.9319 6.90676 12.8333 6.90676 12.7889 6.84039C12.6562 6.64225 12.5015 6.45978 12.3278 6.29648C12.3549 6.29877 12.3822 6.2999 12.4094 6.29989C12.9325 6.29989 13.359 5.8876 13.3765 5.3727L13.3771 5.37326C13.5266 5.52173 13.6906 5.65494 13.8665 5.77092C13.9334 5.81504 13.9334 5.91292 13.8665 5.95707Z" fill="#8042E0"/>
                <path d="M12.2519 4.00313C12.3473 3.94025 12.3473 3.80066 12.2519 3.73782C12.0012 3.57262 11.7677 3.38286 11.5547 3.17135C11.3418 2.96031 11.1506 2.72854 10.9839 2.47947C10.9205 2.38475 10.7799 2.38475 10.7165 2.47947C10.5498 2.72854 10.3586 2.96031 10.1457 3.17135C9.93271 3.38286 9.69916 3.57262 9.44853 3.73782C9.35309 3.80066 9.35309 3.94025 9.44853 4.00313C9.69917 4.16832 9.93272 4.35808 10.1457 4.5696C10.3586 4.78063 10.5498 5.01242 10.7165 5.2615C10.7799 5.35619 10.9205 5.35619 10.9839 5.2615C11.1506 5.01242 11.3418 4.78063 11.5547 4.5696C11.7677 4.35808 12.0012 4.16832 12.2519 4.00313Z" fill="#8F6BDD"/>
                <path d="M12.2519 4.00303C12.0013 4.16823 11.7677 4.358 11.5547 4.56953C11.3418 4.78056 11.1506 5.01235 10.9838 5.26144C10.9205 5.35597 10.78 5.35597 10.7166 5.26144C10.5276 4.97919 10.3073 4.71926 10.0598 4.48663C10.0985 4.48981 10.1372 4.49141 10.176 4.49141C10.9213 4.49141 11.5289 3.90406 11.5539 3.1705L11.5547 3.17131C11.7677 3.38282 12.0013 3.57259 12.2519 3.73781C12.3472 3.80069 12.3472 3.94013 12.2519 4.00303Z" fill="#8042E0"/>
                <path d="M14.4632 3.48412C14.5234 3.44444 14.5234 3.35637 14.4632 3.31672C14.3051 3.21247 14.1577 3.09273 14.0233 2.95928C13.889 2.82612 13.7683 2.67986 13.6631 2.52269C13.6231 2.46294 13.5344 2.46294 13.4944 2.52269C13.3892 2.67986 13.2686 2.82612 13.1342 2.95928C12.9998 3.09273 12.8525 3.21247 12.6943 3.31672C12.6341 3.35637 12.6341 3.44444 12.6943 3.48412C12.8525 3.58836 12.9998 3.7081 13.1342 3.84156C13.2686 3.97471 13.3892 4.12096 13.4944 4.27812C13.5344 4.33787 13.6231 4.33787 13.6631 4.27812C13.7683 4.12096 13.889 3.97471 14.0233 3.84156C14.1577 3.7081 14.3051 3.58836 14.4632 3.48412Z" fill="#C3B9F9"/>
                <path d="M14.4632 3.48406C14.3051 3.58829 14.1577 3.70803 14.0233 3.84149C13.889 3.97466 13.7683 4.12092 13.6631 4.27809C13.6231 4.33774 13.5345 4.33774 13.4945 4.27809C13.3752 4.1 13.2362 3.93598 13.08 3.78918C13.1044 3.79119 13.1289 3.79219 13.1534 3.79218C13.6236 3.79218 14.007 3.42162 14.0228 2.95871L14.0233 2.95924C14.1577 3.09271 14.3051 3.21246 14.4632 3.31671C14.5234 3.35637 14.5234 3.44434 14.4632 3.48406Z" fill="#AB97F2"/>
                <path d="M3.80048 2.51054C3.87389 2.46217 3.87389 2.35476 3.80048 2.30642C3.60765 2.17932 3.42796 2.03331 3.26408 1.87057C3.10031 1.70823 2.95319 1.5299 2.82492 1.33826C2.7762 1.26539 2.66795 1.26539 2.61923 1.33826C2.49094 1.52989 2.34382 1.70822 2.18005 1.87057C2.01617 2.03331 1.83649 2.17931 1.64367 2.30642C1.57023 2.35476 1.57023 2.46217 1.64367 2.51054C1.8365 2.63763 2.01618 2.78363 2.18005 2.94636C2.3438 3.10873 2.49093 3.28705 2.61923 3.47867C2.66795 3.55154 2.7762 3.55154 2.82492 3.47867C2.95321 3.28704 3.10032 3.10872 3.26408 2.94636C3.42795 2.78362 3.60764 2.63762 3.80048 2.51054Z" fill="#C3B9F9"/>
                <path d="M3.80052 2.51045C3.60768 2.63755 3.42799 2.78355 3.26411 2.94629C3.10034 3.10865 2.95321 3.28697 2.82492 3.4786C2.77614 3.55138 2.66805 3.55138 2.6193 3.4786C2.47389 3.26146 2.30436 3.06148 2.11395 2.88248C2.1437 2.88495 2.17354 2.88618 2.20339 2.88616C2.77677 2.88616 3.24423 2.43429 3.26348 1.86991L3.26411 1.87054C3.42798 2.03329 3.60767 2.17931 3.80052 2.30641C3.87383 2.35479 3.87383 2.46204 3.80052 2.51045Z" fill="#AB97F2"/>
                <path d="M4.9921 15.9999H6.13975L5.96169 13.9828C5.95028 13.8534 5.77091 13.8303 5.72706 13.9525L4.9921 15.9999Z" fill="#772DBD"/>
                <path d="M7.15649 15.9999H7.90543L7.77496 14.5217C7.77087 14.4754 7.70671 14.4671 7.69103 14.5108L7.15649 15.9999Z" fill="#772DBD"/>
                <path d="M9.59294 15.9999H8.55585L8.7121 14.23C8.7235 14.1007 8.90285 14.0775 8.94672 14.1998L9.59294 15.9999Z" fill="#772DBD"/>
                <path d="M6.13981 15.9999H5.22012C5.56825 15.6824 5.78669 15.2249 5.78669 14.7168C5.78669 14.4996 5.74669 14.2918 5.67387 14.1002L5.72706 13.9523C5.77094 13.83 5.95025 13.8532 5.96169 13.9825L6.13981 15.9999Z" fill="#6621A3"/>
                <path d="M7.90543 15.9999H7.29855C7.59887 15.7721 7.79262 15.4115 7.79262 15.0052C7.79262 14.8296 7.75637 14.6627 7.69105 14.5111C7.70671 14.4674 7.7709 14.4757 7.77496 14.5219L7.90543 15.9999Z" fill="#6621A3"/>
                <path d="M9.59294 15.9999H8.55576L8.55888 15.9633C8.90669 15.6962 9.13951 15.2865 9.16982 14.8215L9.59294 15.9999Z" fill="#6621A3"/>
            </g>
        </symbol>
    </defs>
</svg>